:::::: LKRG Presents ::::::


::::The Last House on the Left 2009 DVDRip Xvid LKRG::::


::PLOT::


After kidnapping and brutally assaulting two young women, a gang led by a 
prison escapee unknowingly finds refuge at a vacation home belonging the 
parents of one of the victims -- a mother and father who devise an 
increasingly gruesome series of revenge tactics.


::General Info::


Encoded By .......: BigPerm1828
Runtime ..........: 1h 53mn
File Size ........: 1.25 GB
Resolution .......: 704x396
IMDb URL .........: http://www.imdb.com/title/tt0844708/
Genre ............: Drama | Horror | Thriller
Language .........: English


Video
ID : 0
Format : MPEG-4 Visual
Format profile : Advanced Simple@L5
Format settings, BVOP : Yes
Format settings, QPel : No
Format settings, GMC : No warppoints
Format settings, Matrix : Default (H.263)
Codec ID : XVID
Codec ID/Hint : XviD
Duration : 1h 53mn
Bit rate : 1 123 Kbps
Width : 704 pixels
Height : 396 pixels
Display aspect ratio : 16:9
Frame rate : 23.976 fps
Color space : YUV
Chroma subsampling : 4:2:0
Bit depth : 8 bits
Scan type : Progressive
Compression mode : Lossy
Bits/(Pixel*Frame) : 0.168
Stream size : 911 MiB (71%)
Writing library : XviD 1.2.1 (UTC 2008-12-04)


Audio
ID : 1
Format : AC-3
Format/Info : Audio Coding 3
Mode extension : CM (complete main)
Codec ID : 2000
Duration : 1h 53mn
Bit rate mode : Constant
Bit rate : 448 Kbps
Channel(s) : 6 channels
Channel positions : Front: L C R, Side: L R, LFE
Sampling rate : 48.0 KHz
Bit depth : 16 bits
Compression mode : Lossy
Video delay : 42ms
Stream size : 364 MiB (28%)
Alignment : Split accross interleaves
Interleave, duration : 500 ms (11.99 video frames)
Interleave, preload duration : 500 ms


::Screens:::

 
http://leetleech.org/images/42307915756826947260.png
 
http://leetleech.org/images/04160087454440921527.png
 
http://leetleech.org/images/64437236444133819405.png


ENJOY!